<?xml version="1.0" standalone="no"?>
<!DOCTYPE svg PUBLIC "-//W3C//DTD SVG 20010904//EN"
 "http://www.w3.org/TR/2001/REC-SVG-20010904/DTD/svg10.dtd">
<svg version="1.0" xmlns="http://www.w3.org/2000/svg"
 width="243.000000pt" height="243.000000pt" viewBox="0 0 243.000000 243.000000"
 preserveAspectRatio="xMidYMid meet">
<metadata>
Created by potrace 1.14, written by Peter Selinger 2001-2017
</metadata>
<g transform="translate(0.000000,243.000000) scale(0.100000,-0.100000)"
fill="#000000" stroke="none">
<path d="M1140 2157 c0 -24 -7 -66 -16 -93 -8 -27 -17 -69 -20 -93 -6 -45 -61
-156 -92 -184 -37 -34 -120 -67 -166 -67 -49 0 -155 -31 -190 -56 -11 -8 -27
-14 -35 -14 -8 0 -22 -7 -32 -16 -14 -12 -22 -13 -38 -4 -12 6 -21 8 -21 5 0
-3 -8 -1 -18 4 -13 7 -30 4 -62 -10 -48 -22 -60 -18 -41 13 7 11 9 18 4 16 -4
-3 -23 -11 -41 -18 -17 -8 -32 -20 -32 -26 0 -7 -7 -20 -16 -28 -19 -20 -15
-55 9 -79 17 -17 17 -20 3 -36 -9 -10 -16 -24 -16 -32 0 -8 -7 -22 -14 -32 -8
-11 -12 -31 -9 -50 3 -18 6 -36 6 -42 3 -19 -56 -18 -70 1 -12 17 -13 17 -13
0 0 -10 7 -33 16 -52 14 -30 14 -36 1 -63 -8 -16 -12 -32 -9 -35 8 -8 32 14
32 30 0 8 10 14 25 14 16 0 25 -6 25 -16 0 -14 -3 -14 -15 -4 -13 11 -16 8
-21 -19 -4 -17 -11 -31 -16 -31 -12 0 -4 -68 9 -81 5 -5 26 -10 46 -11 45 -2
68 -23 35 -31 -21 -6 -22 -8 -6 -23 9 -9 27 -17 40 -16 21 0 28 -14 75 -162
29 -88 58 -183 64 -211 7 -27 28 -104 47 -170 19 -66 35 -124 36 -130 7 -39
36 -52 206 -91 99 -23 243 -29 420 -19 295 17 415 38 540 98 65 31 70 35 104
104 20 39 36 75 36 79 0 8 22 71 65 184 7 19 30 82 51 140 21 58 44 109 51
113 7 4 13 15 13 22 0 8 3 14 8 13 4 -1 22 3 40 9 27 10 32 17 32 45 0 18 7
42 16 53 10 14 13 32 8 65 -4 25 -10 47 -13 50 -12 10 -51 88 -51 103 0 8 -9
26 -20 40 -11 14 -17 32 -14 41 3 8 -2 30 -11 48 -9 18 -18 53 -20 78 -3 38
-7 46 -27 50 -12 3 -23 12 -23 20 0 8 -6 19 -12 23 -7 4 -13 14 -13 21 0 7 -9
21 -20 31 -15 14 -17 22 -9 37 12 22 9 26 -23 42 -12 6 -28 22 -34 35 -20 40
-59 63 -74 43 -25 -34 -91 -35 -140 -3 -54 36 -133 73 -158 75 -31 2 -132 72
-132 90 0 7 -18 28 -40 46 -22 18 -40 39 -40 45 0 6 -13 25 -30 43 -16 18 -30
37 -30 43 0 5 -14 9 -30 9 -25 0 -33 6 -47 35 -24 49 -43 46 -43 -8z"/>
</g>
</svg>
